ply
format ascii 1.0
comment VCGLIB generated
element vertex 26
property float x
property float y
property float z
property float nx
property float ny
property float nz
element face 48
property list uchar int vertex_indices
end_header
0.5 0.5 0.5 0.57735 0.57735 0.57735 
-0.5 0.5 0.5 -0.333333 0.666667 0.666667 
0.5 -0.5 0.5 0.666667 -0.333333 0.666667 
-0.5 -0.5 0.5 -0.666667 -0.666667 0.333333 
0.5 0.5 -0.5 0.666667 0.666667 -0.333333 
-0.5 0.5 -0.5 -0.666667 0.333333 -0.666667 
0.5 -0.5 -0.5 0.333333 -0.666667 -0.666667 
-0.5 -0.5 -0.5 -0.57735 -0.57735 -0.57735 
0 0 0.5 -0.333333 0.666667 0.666667 
0.5 0 0 0.666667 -0.333333 0.666667 
0 0.5 0 0.666667 0.666667 -0.333333 
0 0 -0.5 -0.666667 0.333333 -0.666667 
0 -0.5 0 0.333333 -0.666667 -0.666667 
-0.5 0 0 -0.666667 -0.666667 0.333333 
0.5 0 0.5 0.666667 -0.333333 0.666667 
-0.5 0 0.5 -0.333333 0.666667 0.666667 
0.5 0.5 0 0.666667 0.666667 -0.333333 
0.5 -0.5 0 0.666667 -0.333333 0.666667 
0 0.5 0.5 -0.333333 0.666667 0.666667 
0 0.5 -0.5 0.666667 0.666667 -0.333333 
0 -0.5 -0.5 0.333333 -0.666667 -0.666667 
-0.5 -0.5 0 -0.666667 -0.666667 0.333333 
-0.5 0 -0.5 -0.666667 0.333333 -0.666667 
0 -0.5 0.5 -0.666667 -0.666667 0.333333 
0.5 0 -0.5 0.333333 -0.666667 -0.666667 
-0.5 0.5 0 -0.666667 0.333333 -0.666667 
3 0 8 14 
3 3 8 15 
3 0 9 16 
3 6 9 17 
3 0 10 18 
3 5 10 19 
3 7 11 20 
3 4 11 19 
3 7 12 21 
3 2 12 17 
3 7 13 22 
3 1 13 15 
3 18 1 8 
3 23 2 8 
3 14 2 9 
3 24 4 9 
3 16 4 10 
3 25 1 10 
3 22 5 11 
3 24 6 11 
3 20 6 12 
3 23 3 12 
3 21 3 13 
3 25 5 13 
3 14 8 2 
3 0 14 9 
3 15 8 1 
3 15 13 3 
3 16 9 4 
3 0 16 10 
3 17 9 2 
3 17 12 6 
3 18 10 1 
3 0 18 8 
3 19 10 4 
3 19 11 5 
3 20 11 6 
3 7 20 12 
3 21 12 3 
3 7 21 13 
3 22 13 5 
3 7 22 11 
3 3 23 8 
3 2 23 12 
3 6 24 9 
3 4 24 11 
3 5 25 10 
3 1 25 13 
